<svg width="48" height="40" viewBox="0 0 48 40" fill="none" xmlns="http://www.w3.org/2000/svg">
<path d="M7.17557 40H4C1.79086 40 0 38.2091 0 36V4C0 1.79086 1.79086 0 4 0H26.0458C28.2549 0 30.0458 1.79086 30.0458 4V6.34825C30.0458 8.55739 28.2549 10.3482 26.0458 10.3482H15.1756C12.9664 10.3482 11.1756 12.1391 11.1756 14.3482V36C11.1756 38.2091 9.38471 40 7.17557 40Z" fill="#66FCF1"/>
<path d="M40.8244 3.43323e-05H44C46.2091 3.43323e-05 48 1.79089 48 4.00003L48 36C48 38.2091 46.2091 40 44 40H21.9542C19.7451 40 17.9542 38.2091 17.9542 36V33.6518C17.9542 31.4426 19.7451 29.6518 21.9542 29.6518L32.8244 29.6518C35.0336 29.6518 36.8244 27.8609 36.8244 25.6518V4.00003C36.8244 1.7909 38.6153 3.43323e-05 40.8244 3.43323e-05Z" fill="#66FCF1"/>
</svg>
